# Blender v2.91.0 OBJ File: ''
# www.blender.org
mtllib Number_7.mtl
o Text
v -1.449126 3.062423 -0.343868
v -1.199126 3.062423 -0.903868
v -1.494126 3.062423 -0.903868
v -1.494126 3.062423 -0.996868
v -1.053126 3.062423 -0.996868
v -1.362126 3.062423 -0.305868
v -1.449126 2.922423 -0.343868
v -1.199126 2.922423 -0.903868
v -1.494126 2.922423 -0.903868
v -1.494126 2.922423 -0.996868
v -1.053126 2.922423 -0.996868
v -1.362126 2.922423 -0.305868
v -1.449126 2.922423 -0.343868
v -1.449126 3.062423 -0.343868
v -1.199126 2.922423 -0.903868
v -1.199126 3.062423 -0.903868
v -1.494126 2.922423 -0.903868
v -1.494126 3.062423 -0.903868
v -1.494126 2.922423 -0.996868
v -1.494126 3.062423 -0.996868
v -1.053126 2.922423 -0.996868
v -1.053126 3.062423 -0.996868
v -1.362126 2.922423 -0.305868
v -1.362126 3.062423 -0.305868
vt 0.400000 0.000000
vt 0.800000 0.000000
vt 0.600000 0.000000
vt 0.200000 0.000000
vt 1.000000 0.000000
vt 0.000000 0.000000
vt 0.800000 0.000000
vt 0.400000 0.000000
vt 0.600000 0.000000
vt 0.200000 0.000000
vt 1.000000 0.000000
vt 0.000000 0.000000
vt 0.000000 1.000000
vt 0.166667 1.000000
vt 0.166667 0.000000
vt 0.000000 0.000000
vt 0.333333 1.000000
vt 0.333333 0.000000
vt 0.500000 1.000000
vt 0.500000 0.000000
vt 0.666667 1.000000
vt 0.666667 0.000000
vt 0.833333 1.000000
vt 0.833333 0.000000
vt 1.000000 1.000000
vt 1.000000 0.000000
vn 0.0000 1.0000 0.0000
vn 0.0000 -1.0000 0.0000
vn -0.9325 0.0000 0.3612
vn -0.8389 0.0000 0.5442
vn -0.7071 0.0000 0.7071
vn -0.7071 0.0000 -0.7071
vn 0.8391 0.0000 -0.5439
vn 0.3609 0.0000 0.9326
usemtl None
s off
f 3/1/1 5/2/1 4/3/1
f 3/1/1 2/4/1 5/2/1
f 2/4/1 6/5/1 5/2/1
f 1/6/1 6/5/1 2/4/1
f 11/7/2 9/8/2 10/9/2
f 8/10/2 9/8/2 11/7/2
f 12/11/2 8/10/2 11/7/2
f 12/11/2 7/12/2 8/10/2
s 1
f 14/13/3 16/14/4 15/15/4 13/16/3
f 16/14/4 18/17/5 17/18/5 15/15/4
f 18/17/5 20/19/6 19/20/6 17/18/5
f 20/19/6 22/21/7 21/22/7 19/20/6
f 22/21/7 24/23/8 23/24/8 21/22/7
f 24/23/8 14/25/3 13/26/3 23/24/8
