# Blender v2.91.0 OBJ File: 'door_rock.blend'
# www.blender.org
mtllib lef_door.mtl
o Lef_Door_Cube.001
v -0.645096 0.123676 -0.666857
v -0.625413 0.123676 0.009479
v -2.216423 0.123676 -0.000054
v -0.878266 0.123676 1.403360
v -0.904908 0.123676 1.771180
v -1.655879 0.123676 1.796767
v -0.755776 0.123676 0.920961
v -1.891494 0.123676 1.397455
v -1.138142 0.123676 -2.125049
v -0.739573 0.123676 -1.343193
v -1.217039 0.123676 -1.372586
v -1.777866 0.123676 -0.676942
v -0.690594 0.123676 0.465220
v -2.188414 0.123676 0.918993
v -1.117573 0.123676 -1.899209
v -2.305098 0.123676 0.464236
v -2.305098 -0.006524 0.464236
v -1.117573 -0.006524 -1.899209
v -2.188414 -0.006524 0.918993
v -0.690594 -0.006524 0.465220
v -1.777866 -0.006524 -0.676942
v -1.217039 -0.006524 -1.372586
v -0.739573 -0.006524 -1.343193
v -1.138142 -0.006524 -2.125049
v -1.891494 -0.006524 1.397455
v -0.755776 -0.006524 0.920961
v -1.655879 -0.006524 1.796767
v -0.904908 -0.006524 1.771180
v -0.878266 -0.006524 1.403360
v -2.216423 -0.006524 -0.000054
v -0.625413 -0.006524 0.009479
v -0.645096 -0.006524 -0.666857
v -0.704171 0.123676 -1.089761
v -1.454520 0.123676 0.004511
v -0.629184 0.123676 -0.120109
v -1.447470 0.123676 -0.127078
v -1.468225 0.123676 -0.249133
v -0.632896 0.123676 -0.247643
v -1.026675 0.123676 -1.042554
v -1.780377 0.123676 -0.673066
v -1.249287 0.123676 -0.900096
v -1.453948 0.123676 -0.573245
v -0.639536 0.123676 -0.475817
v -0.635567 0.123676 -0.339447
v -0.680581 0.123676 -0.920888
v -0.680581 0.212841 -0.920888
v -0.645096 0.212841 -0.666857
v -0.632896 0.212841 -0.247643
v -0.629184 0.212841 -0.120109
v -1.468225 0.212841 -0.249133
v -1.447470 0.212841 -0.127078
v -1.453948 0.212841 -0.573245
v -0.635567 0.212841 -0.339447
v -0.783053 0.212841 -0.247920
v -0.704171 0.212841 -1.089761
v -1.026675 0.212841 -1.042554
v -1.249287 0.212841 -0.900096
v -0.639536 0.212841 -0.475817
v -0.691952 0.212841 -1.002292
v -1.001971 0.212841 -0.961976
v -1.198447 0.212841 -0.828979
v -1.359372 0.212841 -0.527384
v -1.364446 0.212841 -0.248949
v -0.632896 0.274598 -0.247643
v -0.629184 0.274598 -0.120109
v -1.468225 0.274598 -0.249133
v -1.447470 0.274598 -0.127078
v -1.453948 0.274598 -0.573245
v -0.783053 0.274598 -0.247920
v -1.364446 0.274598 -0.248949
v -0.704171 0.274598 -1.089761
v -1.026675 0.274598 -1.042554
v -1.001971 0.274598 -0.961976
v -1.249287 0.274598 -0.900096
v -1.198447 0.274598 -0.828979
v -1.359372 0.274598 -0.527384
v -0.691952 0.274598 -1.002292
vt 0.322245 0.261110
vt 0.358106 0.219277
vt 0.358106 0.219277
vt 0.322245 0.261110
vt 0.434035 0.620223
vt 0.425370 0.628767
vt 0.425370 0.628767
vt 0.434035 0.620223
vt 0.452658 0.258577
vt 0.449423 0.216010
vt 0.449423 0.216010
vt 0.452658 0.258577
vt 0.283869 0.314010
vt 0.283869 0.314010
vt 0.472601 0.560987
vt 0.492835 0.489876
vt 0.492835 0.489876
vt 0.480664 0.516120
vt 0.477981 0.532286
vt 0.472601 0.560987
vt 0.393937 0.539844
vt 0.393937 0.539844
vt 0.466700 0.314216
vt 0.466700 0.314216
vt 0.322504 0.483421
vt 0.322504 0.483421
vt 0.483218 0.364928
vt 0.483218 0.364928
vt 0.262053 0.361285
vt 0.262053 0.361285
vt 0.490569 0.411265
vt 0.490569 0.411265
vt 0.267738 0.410435
vt 0.267738 0.410435
vt 0.385578 0.427411
vt 0.379889 0.441326
vt 0.379889 0.441326
vt 0.385578 0.427411
vt 0.391712 0.412408
vt 0.322506 0.482978
vt 0.493024 0.427338
vt 0.492980 0.441926
vt 0.492948 0.452426
vt 0.492901 0.468025
vt 0.400922 0.504673
vt 0.375620 0.463176
vt 0.432957 0.520874
vt 0.492980 0.441926
vt 0.492948 0.452426
vt 0.477981 0.532286
vt 0.432957 0.520874
vt 0.493024 0.427338
vt 0.492901 0.468025
vt 0.400922 0.504673
vt 0.375620 0.463176
vt 0.385578 0.427411
vt 0.493024 0.427338
vt 0.432957 0.520874
vt 0.400922 0.504673
vt 0.389642 0.460251
vt 0.393835 0.441400
vt 0.393835 0.441400
vt 0.389642 0.460251
vt 0.379889 0.441326
vt 0.492835 0.489876
vt 0.471964 0.441814
vt 0.480664 0.516120
vt 0.441629 0.510557
vt 0.480374 0.519526
vt 0.441629 0.510557
vt 0.408669 0.497819
vt 0.480374 0.519526
vt 0.477981 0.532286
vt 0.408669 0.497819
vt 0.471964 0.441814
vt 0.492980 0.441926
vt 0.375620 0.463176
vn 0.8612 0.0000 -0.5082
vn 0.9959 0.0000 -0.0907
vn -0.9974 0.0000 -0.0722
vn 0.8497 0.0000 -0.5273
vn -0.9904 -0.0000 0.1383
vn 0.9826 0.0000 0.1856
vn -0.0341 0.0000 -0.9994
vn -0.9692 0.0000 -0.2461
vn 0.7785 0.0000 0.6276
vn -0.9899 0.0000 -0.1416
vn 0.9686 0.0000 -0.2485
vn 0.9822 0.0000 0.1876
vn 0.9858 0.0000 -0.1676
vn 0.0000 1.0000 0.0000
vn 0.0000 -1.0000 0.0000
vn -0.8909 0.0000 0.4542
vn 0.8392 0.0000 0.5437
vn -0.9996 0.0000 0.0291
vn 0.1448 0.0000 0.9895
vn 0.5390 0.0000 0.8423
vn 0.9990 0.0000 0.0440
vn 0.8476 0.0000 0.5307
vn 0.0085 0.0000 -1.0000
vn -0.9998 0.0000 -0.0182
vn -0.1290 0.0000 -0.9916
vn -0.5606 0.0000 -0.8281
vn -0.0018 0.0000 1.0000
vn -0.8823 0.0000 -0.4708
usemtl Material
s off
f 8/1/1 6/2/1 27/3/1 25/4/1
f 9/5/2 15/6/2 18/7/2 24/8/2
f 29/9/3 28/10/3 5/11/3 4/12/3
f 14/13/4 8/1/4 25/4/4 19/14/4
f 23/15/5 32/16/5 1/17/5 45/18/5 33/19/5 10/20/5
f 15/6/6 11/21/6 22/22/6 18/7/6
f 6/2/7 5/11/7 28/10/7 27/3/7
f 26/23/8 29/9/8 4/12/8 7/24/8
f 11/21/9 12/25/9 21/26/9 22/22/9
f 20/27/10 26/23/10 7/24/10 13/28/10
f 16/29/11 14/13/11 19/14/11 17/30/11
f 31/31/10 20/27/10 13/28/10 2/32/10
f 3/33/12 16/29/12 17/30/12 30/34/12
f 36/35/13 37/36/13 50/37/13 51/38/13
f 29/9/14 25/4/14 27/3/14 28/10/14
f 26/23/14 19/14/14 25/4/14 29/9/14
f 24/8/14 18/7/14 22/22/14 23/15/14
f 20/27/14 17/30/14 19/14/14 26/23/14
f 31/31/14 30/34/14 17/30/14 20/27/14
f 2/32/15 13/28/15 16/29/15 3/33/15 34/39/15
f 13/28/15 7/24/15 14/13/15 16/29/15
f 9/5/15 10/20/15 11/21/15 15/6/15
f 7/24/15 4/12/15 8/1/15 14/13/15
f 4/12/15 5/11/15 6/2/15 8/1/15
f 24/8/16 23/15/16 10/20/16 9/5/16
f 12/25/17 40/40/17 3/33/17 30/34/17 21/26/17
f 32/16/18 31/31/18 2/32/18 35/41/18 38/42/18 44/43/18 43/44/18 1/17/18
f 41/45/15 42/46/15 40/40/15 12/25/15 11/21/15 10/20/15 33/19/15 39/47/15
f 36/35/15 35/41/15 2/32/15 34/39/15
f 44/43/18 38/42/18 48/48/18 53/49/18
f 39/47/19 33/19/19 55/50/19 56/51/19
f 23/15/14 22/22/14 21/26/14 30/34/14 31/31/14 32/16/14
f 40/40/15 42/46/15 37/36/15 36/35/15 34/39/15 3/33/15
f 38/42/18 35/41/18 49/52/18 48/48/18
f 43/44/18 44/43/18 53/49/18 58/53/18
f 41/45/20 39/47/20 56/51/20 57/54/20
f 37/36/21 42/46/21 52/55/21 50/37/21
f 42/46/22 41/45/22 57/54/22 52/55/22
f 49/52/23 51/38/23 67/56/23 65/57/23
f 57/54/20 56/51/20 72/58/20 74/59/20
f 62/60/24 63/61/24 70/62/24 76/63/24
f 51/38/13 50/37/13 66/64/13 67/56/13
f 47/65/15 58/53/15 54/66/15 46/67/15
f 54/66/15 58/53/15 53/49/15
f 53/49/15 48/48/15 54/66/15
f 46/67/15 54/66/15 60/68/15 59/69/15
f 1/17/18 43/44/18 58/53/18 47/65/18
f 45/18/5 1/17/5 47/65/5 46/67/5
f 33/19/5 45/18/5 46/67/5 59/69/5 55/50/5
f 35/41/23 36/35/23 51/38/23 49/52/23
f 74/59/15 72/58/15 73/70/15 75/71/15
f 55/50/5 59/69/5 77/72/5 71/73/5
f 61/74/15 60/68/15 54/66/15
f 62/60/15 61/74/15 54/66/15
f 63/61/15 62/60/15 54/66/15
f 66/64/15 70/62/15 69/75/15 64/76/15 65/57/15 67/56/15
f 74/59/15 75/71/15 76/63/15 68/77/15
f 68/77/15 76/63/15 70/62/15 66/64/15
f 77/72/15 73/70/15 72/58/15 71/73/15
f 59/69/25 60/68/25 73/70/25 77/72/25
f 50/37/21 52/55/21 68/77/21 66/64/21
f 52/55/22 57/54/22 74/59/22 68/77/22
f 60/68/26 61/74/26 75/71/26 73/70/26
f 54/66/27 48/48/27 64/76/27 69/75/27
f 63/61/27 54/66/27 69/75/27 70/62/27
f 61/74/28 62/60/28 76/63/28 75/71/28
f 56/51/19 55/50/19 71/73/19 72/58/19
f 48/48/18 49/52/18 65/57/18 64/76/18
