# Blender v2.91.0 OBJ File: 'river_border.blend'
# www.blender.org
mtllib river_border.mtl
o Cube
v -1.290474 -0.282691 0.682575
v -1.204945 0.295197 0.231677
v -1.385825 -0.251388 -0.844052
v -1.196569 0.345857 -0.250061
v 1.320915 -0.279606 0.751388
v 1.155614 0.317788 0.329806
v 1.314805 -0.285094 -0.810575
v 1.162288 0.149800 -0.306261
v 1.339466 0.227909 0.199173
v 1.436318 0.232596 0.007498
v 1.343692 0.189292 -0.179208
v -0.710376 0.497010 0.245386
v -0.002550 0.675080 0.257590
v 0.676431 0.371113 0.326308
v -1.486444 -0.176767 0.595586
v -1.530285 -0.017247 0.428487
v -1.395839 0.155773 0.308250
v 1.363089 0.136831 -0.363000
v 1.518380 -0.000465 -0.500544
v 1.498830 -0.179118 -0.710670
v -1.555871 -0.147146 -0.703582
v -1.545985 0.017869 -0.448474
v -1.386128 0.198627 -0.292178
v 1.505453 -0.170113 0.676235
v 1.519951 0.022597 0.493611
v 1.358674 0.185327 0.377638
v -0.779608 -0.270351 -1.094944
v -0.003094 -0.134081 -1.176627
v 0.717511 -0.313466 -1.006391
v -1.580195 -0.293657 0.384011
v -1.773631 -0.302853 -0.118700
v -1.646227 -0.314169 -0.589349
v 0.681298 0.218563 -0.322763
v -0.002278 0.479236 -0.341748
v -0.710962 0.500477 -0.341431
v 1.663435 -0.323134 -0.540989
v 1.901324 -0.341619 -0.030478
v 1.671757 -0.320304 0.480255
v 0.717986 -0.199608 0.915099
v -0.000161 -0.037295 0.992614
v -0.716775 -0.167206 0.888215
v -1.363706 0.355024 -0.150780
v -1.451610 0.311732 -0.021676
v -1.376138 0.307067 0.125074
v -0.776267 -0.219394 0.537727
v -0.000461 -0.093440 0.613913
v 0.776945 -0.258021 0.576652
v -0.844970 -0.231836 -0.104275
v -0.001305 -0.104608 -0.087626
v 0.829962 -0.273511 -0.053671
v -0.825194 -0.231222 -0.743800
v -0.002521 -0.103316 -0.790366
v 0.776213 -0.263889 -0.680741
v -0.764072 0.291082 -0.506145
v -0.827482 0.046725 -0.741988
v -0.816499 -0.162740 -1.032492
v -0.001970 0.274467 -0.537070
v -0.001799 0.033970 -0.812058
v -0.002526 -0.070416 -1.117443
v 0.733506 0.127985 -0.447020
v 0.788595 -0.022641 -0.642008
v 0.759366 -0.187994 -0.920393
v 1.784306 0.276273 -0.186022
v 2.077757 0.065007 -0.272657
v 2.154380 -0.492878 -0.415435
v 1.929093 0.348125 0.001345
v 2.291432 0.089030 -0.004592
v 2.452847 -0.500627 -0.014203
v 1.783458 0.294251 0.192163
v 2.081744 0.071569 0.263867
v 2.163910 -0.489932 0.385786
v 0.725083 0.233946 0.191685
v -0.002162 0.796579 0.132254
v -0.756936 0.601946 0.111527
v 0.770488 0.169574 0.003708
v -0.001703 0.833951 -0.015721
v -0.797196 0.626653 -0.043774
v 0.728375 0.202439 -0.182949
v -0.001990 0.602388 -0.175904
v -0.756551 0.605484 -0.192319
v -1.770461 0.099762 0.167704
v -2.007861 -0.063773 0.201120
v -2.044753 -0.320711 0.262893
v -1.868803 0.103187 -0.002742
v -2.146235 -0.066838 -0.046216
v -2.255979 -0.326668 -0.111644
v -1.745896 0.198188 -0.158986
v -1.994567 0.029342 -0.272873
v -2.066359 -0.233116 -0.451222
v 0.729003 0.277444 0.437968
v 0.786580 0.107080 0.609310
v 0.759333 -0.071926 0.855995
v -0.001974 0.470428 0.386696
v -0.000897 0.230177 0.609704
v -0.000266 0.104146 0.915072
v -0.757819 0.289678 0.372834
v -0.800607 0.049621 0.571579
v -0.761587 -0.034340 0.831443
vt 0.696045 0.554579
vt 0.692491 0.625000
vt 0.751736 0.625000
vt 0.752821 0.559896
vt 0.812717 0.625000
vt 0.812853 0.562174
vt 0.696045 0.695421
vt 0.752821 0.690104
vt 0.812853 0.687826
vt 0.666667 0.458333
vt 0.637912 0.550456
vt 0.705078 0.482422
vt 0.755208 0.494792
vt 0.813151 0.499349
vt 0.875000 0.562500
vt 0.875000 0.500000
vt 0.875000 0.625000
vt 0.875000 0.687500
vt 0.813151 0.750651
vt 0.875000 0.750000
vt 0.755208 0.755208
vt 0.705078 0.767578
vt 0.637912 0.699544
vt 0.666667 0.791667
vt 0.631945 0.625000
vt 0.429579 0.821045
vt 0.434896 0.877821
vt 0.500000 0.876736
vt 0.500000 0.817491
vt 0.565104 0.877821
vt 0.570421 0.821045
vt 0.437174 0.937853
vt 0.500000 0.937717
vt 0.562826 0.937853
vt 0.333333 0.791667
vt 0.357422 0.830078
vt 0.425456 0.762912
vt 0.500000 0.756944
vt 0.574544 0.762912
vt 0.642578 0.830078
vt 0.630208 0.880208
vt 0.625651 0.938151
vt 0.562500 1.000000
vt 0.625000 1.000000
vt 0.500000 1.000000
vt 0.437500 1.000000
vt 0.374349 0.938151
vt 0.375000 1.000000
vt 0.369792 0.880208
vt 0.437500 0.062500
vt 0.437500 0.125000
vt 0.500000 0.125000
vt 0.500000 0.062500
vt 0.562500 0.125000
vt 0.562500 0.062500
vt 0.437500 0.187500
vt 0.500000 0.187500
vt 0.562500 0.187500
vt 0.375000 0.000000
vt 0.375000 0.062500
vt 0.437500 0.000000
vt 0.500000 0.000000
vt 0.562500 0.000000
vt 0.625000 0.062500
vt 0.625000 0.000000
vt 0.625000 0.125000
vt 0.625000 0.187500
vt 0.562500 0.250000
vt 0.625000 0.250000
vt 0.500000 0.250000
vt 0.437500 0.250000
vt 0.375000 0.187500
vt 0.375000 0.250000
vt 0.375000 0.125000
vt 0.187147 0.562174
vt 0.187283 0.625000
vt 0.248264 0.625000
vt 0.247179 0.559896
vt 0.307509 0.625000
vt 0.303955 0.554579
vt 0.187147 0.687826
vt 0.247179 0.690104
vt 0.303955 0.695421
vt 0.125000 0.500000
vt 0.125000 0.562500
vt 0.186849 0.499349
vt 0.244792 0.494792
vt 0.294922 0.482422
vt 0.362088 0.550456
vt 0.333333 0.458333
vt 0.368056 0.625000
vt 0.362088 0.699544
vt 0.294922 0.767578
vt 0.244792 0.755208
vt 0.186849 0.750651
vt 0.125000 0.687500
vt 0.125000 0.750000
vt 0.125000 0.625000
vt 0.429742 0.554742
vt 0.432726 0.625000
vt 0.500000 0.625000
vt 0.500000 0.557726
vt 0.567274 0.625000
vt 0.570258 0.554742
vt 0.429742 0.695258
vt 0.500000 0.692274
vt 0.570258 0.695258
vt 0.425456 0.487088
vt 0.500000 0.493056
vt 0.574544 0.487088
vt 0.437174 0.312147
vt 0.434896 0.372179
vt 0.500000 0.373264
vt 0.500000 0.312283
vt 0.565104 0.372179
vt 0.562826 0.312147
vt 0.429579 0.428955
vt 0.500000 0.432509
vt 0.570421 0.428955
vt 0.374349 0.311849
vt 0.625651 0.311849
vt 0.630208 0.369792
vt 0.642578 0.419922
vt 0.357422 0.419922
vt 0.369792 0.369792
vn 0.1539 -0.9880 0.0094
vn -0.2030 -0.9791 0.0116
vn 0.1514 -0.9885 0.0007
vn -0.2005 -0.9797 0.0002
vn 0.1295 -0.9912 0.0267
vn 0.1518 -0.9794 0.1331
vn -0.2013 -0.9697 0.1384
vn -0.0749 -0.9910 0.1108
vn -0.0656 -0.9977 0.0159
vn -0.0642 -0.9979 -0.0082
vn -0.0297 -0.9988 0.0397
vn -0.2421 -0.9617 0.1287
vn 0.1702 -0.9800 0.1033
vn 0.0394 -0.9990 -0.0191
vn 0.0893 -0.9958 0.0214
vn 0.0836 -0.9965 -0.0003
vn -0.0302 0.7268 -0.6861
vn -0.0867 0.8808 -0.4654
vn 0.2059 0.7639 -0.6116
vn 0.1986 0.8858 -0.4195
vn -0.3338 0.6325 -0.6990
vn -0.2996 0.7271 -0.6177
vn -0.2418 0.7998 -0.5494
vn -0.3429 0.4532 -0.8228
vn -0.1647 0.5477 -0.8203
vn 0.3026 0.5367 -0.7876
vn 0.2481 0.4478 -0.8590
vn 0.1215 0.8058 -0.5796
vn 0.0852 0.7793 -0.6208
vn 0.0856 0.9117 -0.4019
vn 0.2581 0.7303 -0.6325
vn 0.0009 0.6560 -0.7548
vn 0.4526 0.7314 -0.5102
vn 0.7685 0.2383 -0.5938
vn 0.4827 0.7282 0.4865
vn 0.7804 0.2222 0.5844
vn -0.1377 0.9485 -0.2853
vn 0.1590 0.6707 -0.7245
vn 0.4300 0.4170 -0.8008
vn 0.1831 -0.6548 -0.7333
vn -0.3166 -0.9351 0.1593
vn -0.3070 -0.9411 -0.1417
vn 0.0981 -0.7480 0.6564
vn 0.4326 0.3707 0.8218
vn 0.2163 0.6237 0.7511
vn 0.0852 0.9712 0.2226
vn -0.1901 0.9813 0.0297
vn -0.2114 0.9638 -0.1625
vn 0.6324 0.7743 0.0241
vn -0.2511 0.9413 0.2256
vn 0.5118 0.7170 -0.4733
vn -0.0826 0.7658 -0.6377
vn 0.0486 0.7794 -0.6246
vn 0.5210 0.8523 0.0469
vn -0.1985 0.7203 0.6646
vn -0.3162 0.7088 0.6306
vn -0.4133 0.8774 0.2437
vn -0.4111 0.9039 -0.1183
vn -0.3385 0.7108 -0.6166
vn 0.0199 0.8110 -0.5847
vn 0.3978 0.8450 -0.3575
vn 0.0764 0.9855 -0.1517
vn -0.0388 0.9991 -0.0139
vn -0.0423 0.9844 -0.1706
vn -0.5233 0.7987 0.2972
vn -0.8483 0.2374 0.4734
vn -0.5468 0.8369 0.0258
vn -0.8241 0.4482 -0.3465
vn -0.3237 0.7463 0.5816
vn -0.3568 0.6845 0.6357
vn -0.4907 0.4134 0.7670
vn -0.2687 -0.7878 0.5543
vn 0.0546 -0.9985 -0.0079
vn -0.0840 -0.9875 -0.1331
vn -0.4828 -0.3012 -0.8223
vn -0.3351 0.7016 -0.6288
vn -0.2279 0.7480 -0.6233
vn -0.2926 0.6640 -0.6881
vn -0.4105 0.9020 0.1339
vn -0.4255 0.8682 0.2553
vn 0.1213 0.6965 0.7072
vn 0.1842 0.8565 0.4821
vn -0.1773 0.6580 0.7318
vn -0.2137 0.9108 0.3533
vn 0.1247 0.6622 0.7389
vn 0.1799 0.7076 0.6833
vn 0.2197 0.7269 0.6507
vn 0.2707 0.2659 0.9252
vn 0.1791 0.4235 0.8880
vn -0.1876 0.4070 0.8939
vn -0.3505 0.1977 0.9155
vn -0.2522 0.8187 0.5158
vn -0.2065 0.6520 0.7296
vn -0.2324 0.6069 0.7600
vn -0.1459 0.5349 0.8322
vn 0.1604 0.6371 0.7539
usemtl Material
s off
f 45/1/1 48/2/1 49/3/1 46/4/1
f 46/4/2 49/3/2 50/5/2 47/6/2
f 48/2/3 51/7/3 52/8/3 49/3/3
f 49/3/4 52/8/4 53/9/4 50/5/4
f 1/10/5 30/11/5 45/1/5 41/12/5
f 41/12/6 45/1/6 46/4/6 40/13/6
f 40/13/7 46/4/7 47/6/7 39/14/7
f 39/14/8 47/6/8 38/15/8 5/16/8
f 47/6/9 50/5/9 37/17/9 38/15/9
f 50/5/10 53/9/10 36/18/10 37/17/10
f 53/9/11 29/19/11 7/20/11 36/18/11
f 52/8/12 28/21/12 29/19/12 53/9/12
f 51/7/13 27/22/13 28/21/13 52/8/13
f 32/23/14 3/24/14 27/22/14 51/7/14
f 31/25/15 32/23/15 51/7/15 48/2/15
f 30/11/16 31/25/16 48/2/16 45/1/16
f 54/26/17 57/27/17 58/28/17 55/29/17
f 55/29/18 58/28/18 59/30/18 56/31/18
f 57/27/19 60/32/19 61/33/19 58/28/19
f 58/28/20 61/33/20 62/34/20 59/30/20
f 4/35/21 35/36/21 54/26/21 23/37/21
f 23/37/22 54/26/22 55/29/22 22/38/22
f 22/38/23 55/29/23 56/31/23 21/39/23
f 21/39/24 56/31/24 27/40/24 3/24/24
f 56/31/25 59/30/25 28/41/25 27/40/25
f 59/30/26 62/34/26 29/42/26 28/41/26
f 62/34/27 20/43/27 7/44/27 29/42/27
f 61/33/28 19/45/28 20/43/28 62/34/28
f 60/32/29 18/46/29 19/45/29 61/33/29
f 33/47/30 8/48/30 18/46/30 60/32/30
f 34/49/31 33/47/31 60/32/31 57/27/31
f 35/36/32 34/49/32 57/27/32 54/26/32
f 63/50/33 66/51/33 67/52/33 64/53/33
f 64/53/34 67/52/34 68/54/34 65/55/34
f 66/51/35 69/56/35 70/57/35 67/52/35
f 67/52/36 70/57/36 71/58/36 68/54/36
f 8/59/37 11/60/37 63/50/37 18/61/37
f 18/61/38 63/50/38 64/53/38 19/62/38
f 19/62/39 64/53/39 65/55/39 20/63/39
f 20/63/40 65/55/40 36/64/40 7/65/40
f 65/55/41 68/54/41 37/66/41 36/64/41
f 68/54/42 71/58/42 38/67/42 37/66/42
f 71/58/43 24/68/43 5/69/43 38/67/43
f 70/57/44 25/70/44 24/68/44 71/58/44
f 69/56/45 26/71/45 25/70/45 70/57/45
f 9/72/46 6/73/46 26/71/46 69/56/46
f 10/74/47 9/72/47 69/56/47 66/51/47
f 11/60/48 10/74/48 66/51/48 63/50/48
f 72/75/49 75/76/49 76/77/49 73/78/49
f 73/78/50 76/77/50 77/79/50 74/80/50
f 75/76/51 78/81/51 79/82/51 76/77/51
f 76/77/52 79/82/52 80/83/52 77/79/52
f 6/84/53 9/85/53 72/75/53 14/86/53
f 14/86/54 72/75/54 73/78/54 13/87/54
f 13/87/55 73/78/55 74/80/55 12/88/55
f 12/88/56 74/80/56 44/89/56 2/90/56
f 74/80/57 77/79/57 43/91/57 44/89/57
f 77/79/58 80/83/58 42/92/58 43/91/58
f 80/83/59 35/93/59 4/35/59 42/92/59
f 79/82/60 34/94/60 35/93/60 80/83/60
f 78/81/61 33/95/61 34/94/61 79/82/61
f 11/96/62 8/97/62 33/95/62 78/81/62
f 10/98/63 11/96/63 78/81/63 75/76/63
f 9/85/64 10/98/64 75/76/64 72/75/64
f 81/99/65 84/100/65 85/101/65 82/102/65
f 82/102/66 85/101/66 86/103/66 83/104/66
f 84/100/67 87/105/67 88/106/67 85/101/67
f 85/101/68 88/106/68 89/107/68 86/103/68
f 2/90/69 44/89/69 81/99/69 17/108/69
f 17/108/70 81/99/70 82/102/70 16/109/70
f 16/109/71 82/102/71 83/104/71 15/110/71
f 15/110/72 83/104/72 30/11/72 1/10/72
f 83/104/73 86/103/73 31/25/73 30/11/73
f 86/103/74 89/107/74 32/23/74 31/25/74
f 89/107/75 21/39/75 3/24/75 32/23/75
f 88/106/76 22/38/76 21/39/76 89/107/76
f 87/105/77 23/37/77 22/38/77 88/106/77
f 42/92/78 4/35/78 23/37/78 87/105/78
f 43/91/79 42/92/79 87/105/79 84/100/79
f 44/89/80 43/91/80 84/100/80 81/99/80
f 90/111/81 93/112/81 94/113/81 91/114/81
f 91/114/82 94/113/82 95/115/82 92/116/82
f 93/112/83 96/117/83 97/118/83 94/113/83
f 94/113/84 97/118/84 98/119/84 95/115/84
f 6/73/85 14/120/85 90/111/85 26/71/85
f 26/71/86 90/111/86 91/114/86 25/70/86
f 25/70/87 91/114/87 92/116/87 24/68/87
f 24/68/88 92/116/88 39/121/88 5/69/88
f 92/116/89 95/115/89 40/122/89 39/121/89
f 95/115/90 98/119/90 41/123/90 40/122/90
f 98/119/91 15/110/91 1/10/91 41/123/91
f 97/118/92 16/109/92 15/110/92 98/119/92
f 96/117/93 17/108/93 16/109/93 97/118/93
f 12/124/94 2/90/94 17/108/94 96/117/94
f 13/125/95 12/124/95 96/117/95 93/112/95
f 14/120/96 13/125/96 93/112/96 90/111/96
